<mxfile host="Electron" agent="Mozilla/5.0 (Windows NT 10.0; Win64; x64) AppleWebKit/537.36 (KHTML, like Gecko) draw.io/26.0.9 Chrome/128.0.6613.186 Electron/32.2.5 Safari/537.36" version="26.0.9">
  <diagram name="Page-1" id="FMDaRGA5X6RuQdv62evK">
    <mxGraphModel dx="2858" dy="1204" grid="1" gridSize="10" guides="1" tooltips="1" connect="1" arrows="1" fold="1" page="1" pageScale="1" pageWidth="850" pageHeight="1100" math="0" shadow="0">
      <root>
        <mxCell id="0" />
        <mxCell id="1" parent="0" />
        <mxCell id="UME8nkSPIRxr-dYa2A3D-31" value="&lt;font style=&quot;font-size: 19px;&quot;&gt;Gold&lt;/font&gt;" style="rounded=0;whiteSpace=wrap;html=1;align=left;verticalAlign=top;fillColor=#e3c800;fontColor=#000000;strokeColor=#B09500;" vertex="1" parent="1">
          <mxGeometry x="924" y="40" width="316" height="660" as="geometry" />
        </mxCell>
        <mxCell id="UME8nkSPIRxr-dYa2A3D-29" value="&lt;font style=&quot;font-size: 19px;&quot;&gt;Silver&lt;/font&gt;" style="rounded=0;whiteSpace=wrap;html=1;align=left;verticalAlign=top;fillColor=#647687;fontColor=#ffffff;strokeColor=#314354;" vertex="1" parent="1">
          <mxGeometry x="340" y="40" width="130" height="660" as="geometry" />
        </mxCell>
        <mxCell id="UME8nkSPIRxr-dYa2A3D-22" value="&lt;font style=&quot;font-size: 19px;&quot;&gt;Bronce&lt;/font&gt;" style="rounded=0;whiteSpace=wrap;html=1;align=left;verticalAlign=top;fillColor=#a0522d;fontColor=#ffffff;strokeColor=#6D1F00;" vertex="1" parent="1">
          <mxGeometry x="-99" y="45" width="120" height="650" as="geometry" />
        </mxCell>
        <mxCell id="UME8nkSPIRxr-dYa2A3D-3" value="" style="edgeStyle=entityRelationEdgeStyle;rounded=0;orthogonalLoop=1;jettySize=auto;html=1;" edge="1" parent="1" source="UME8nkSPIRxr-dYa2A3D-1" target="UME8nkSPIRxr-dYa2A3D-2">
          <mxGeometry relative="1" as="geometry" />
        </mxCell>
        <mxCell id="UME8nkSPIRxr-dYa2A3D-4" value="Data cleaning&lt;br&gt;Glue trigger" style="edgeLabel;html=1;align=center;verticalAlign=middle;resizable=0;points=[];" vertex="1" connectable="0" parent="UME8nkSPIRxr-dYa2A3D-3">
          <mxGeometry x="-0.1199" y="2" relative="1" as="geometry">
            <mxPoint x="12" y="-11" as="offset" />
          </mxGeometry>
        </mxCell>
        <mxCell id="UME8nkSPIRxr-dYa2A3D-1" value="S3 Bucket&lt;br&gt;Datalake&lt;br&gt;raw data" style="sketch=0;points=[[0,0,0],[0.25,0,0],[0.5,0,0],[0.75,0,0],[1,0,0],[0,1,0],[0.25,1,0],[0.5,1,0],[0.75,1,0],[1,1,0],[0,0.25,0],[0,0.5,0],[0,0.75,0],[1,0.25,0],[1,0.5,0],[1,0.75,0]];outlineConnect=0;dashed=0;verticalLabelPosition=bottom;verticalAlign=top;align=center;html=1;fontSize=12;fontStyle=0;aspect=fixed;shape=mxgraph.aws4.resourceIcon;resIcon=mxgraph.aws4.s3;" vertex="1" parent="1">
          <mxGeometry x="-78" y="510" width="78" height="78" as="geometry" />
        </mxCell>
        <mxCell id="UME8nkSPIRxr-dYa2A3D-2" value="Glue&lt;br&gt;Data cleaning" style="sketch=0;points=[[0,0,0],[0.25,0,0],[0.5,0,0],[0.75,0,0],[1,0,0],[0,1,0],[0.25,1,0],[0.5,1,0],[0.75,1,0],[1,1,0],[0,0.25,0],[0,0.5,0],[0,0.75,0],[1,0.25,0],[1,0.5,0],[1,0.75,0]];outlineConnect=0;fontColor=#232F3E;fillColor=#8C4FFF;strokeColor=#ffffff;dashed=0;verticalLabelPosition=bottom;verticalAlign=top;align=center;html=1;fontSize=12;fontStyle=0;aspect=fixed;shape=mxgraph.aws4.resourceIcon;resIcon=mxgraph.aws4.glue;" vertex="1" parent="1">
          <mxGeometry x="140" y="280" width="78" height="78" as="geometry" />
        </mxCell>
        <mxCell id="UME8nkSPIRxr-dYa2A3D-7" value="S3 Bucket&lt;br&gt;Datalake&lt;br&gt;processed data" style="sketch=0;points=[[0,0,0],[0.25,0,0],[0.5,0,0],[0.75,0,0],[1,0,0],[0,1,0],[0.25,1,0],[0.5,1,0],[0.75,1,0],[1,1,0],[0,0.25,0],[0,0.5,0],[0,0.75,0],[1,0.25,0],[1,0.5,0],[1,0.75,0]];outlineConnect=0;dashed=0;verticalLabelPosition=bottom;verticalAlign=top;align=center;html=1;fontSize=12;fontStyle=0;aspect=fixed;shape=mxgraph.aws4.resourceIcon;resIcon=mxgraph.aws4.s3;" vertex="1" parent="1">
          <mxGeometry x="360" y="511" width="78" height="78" as="geometry" />
        </mxCell>
        <mxCell id="UME8nkSPIRxr-dYa2A3D-8" style="edgeStyle=entityRelationEdgeStyle;rounded=0;orthogonalLoop=1;jettySize=auto;html=1;entryX=0;entryY=0.5;entryDx=0;entryDy=0;entryPerimeter=0;" edge="1" parent="1" source="UME8nkSPIRxr-dYa2A3D-2" target="UME8nkSPIRxr-dYa2A3D-7">
          <mxGeometry relative="1" as="geometry" />
        </mxCell>
        <mxCell id="UME8nkSPIRxr-dYa2A3D-15" value="Data cleaning&lt;br&gt;Successfull" style="edgeLabel;html=1;align=center;verticalAlign=middle;resizable=0;points=[];" vertex="1" connectable="0" parent="UME8nkSPIRxr-dYa2A3D-8">
          <mxGeometry x="-0.0117" y="1" relative="1" as="geometry">
            <mxPoint as="offset" />
          </mxGeometry>
        </mxCell>
        <mxCell id="UME8nkSPIRxr-dYa2A3D-9" value="Redshift&lt;br&gt;Serverless&lt;br&gt;DWH" style="sketch=0;points=[[0,0,0],[0.25,0,0],[0.5,0,0],[0.75,0,0],[1,0,0],[0,1,0],[0.25,1,0],[0.5,1,0],[0.75,1,0],[1,1,0],[0,0.25,0],[0,0.5,0],[0,0.75,0],[1,0.25,0],[1,0.5,0],[1,0.75,0]];outlineConnect=0;fontColor=#232F3E;fillColor=#8C4FFF;strokeColor=#ffffff;dashed=0;verticalLabelPosition=bottom;verticalAlign=top;align=center;html=1;fontSize=12;fontStyle=0;aspect=fixed;shape=mxgraph.aws4.resourceIcon;resIcon=mxgraph.aws4.redshift;" vertex="1" parent="1">
          <mxGeometry x="1032.5" y="110" width="78" height="78" as="geometry" />
        </mxCell>
        <mxCell id="UME8nkSPIRxr-dYa2A3D-11" value="Glue&lt;br&gt;ETL&lt;div&gt;Data Modeling&lt;/div&gt;" style="sketch=0;points=[[0,0,0],[0.25,0,0],[0.5,0,0],[0.75,0,0],[1,0,0],[0,1,0],[0.25,1,0],[0.5,1,0],[0.75,1,0],[1,1,0],[0,0.25,0],[0,0.5,0],[0,0.75,0],[1,0.25,0],[1,0.5,0],[1,0.75,0]];outlineConnect=0;fontColor=#232F3E;fillColor=#8C4FFF;strokeColor=#ffffff;dashed=0;verticalLabelPosition=bottom;verticalAlign=top;align=center;html=1;fontSize=12;fontStyle=0;aspect=fixed;shape=mxgraph.aws4.resourceIcon;resIcon=mxgraph.aws4.glue;" vertex="1" parent="1">
          <mxGeometry x="690" y="250" width="78" height="78" as="geometry" />
        </mxCell>
        <mxCell id="UME8nkSPIRxr-dYa2A3D-12" style="edgeStyle=entityRelationEdgeStyle;rounded=0;orthogonalLoop=1;jettySize=auto;html=1;entryX=0;entryY=0.5;entryDx=0;entryDy=0;entryPerimeter=0;" edge="1" parent="1" source="UME8nkSPIRxr-dYa2A3D-11" target="UME8nkSPIRxr-dYa2A3D-9">
          <mxGeometry relative="1" as="geometry" />
        </mxCell>
        <mxCell id="UME8nkSPIRxr-dYa2A3D-28" value="Data modeling&lt;div&gt;successfull&lt;/div&gt;" style="edgeLabel;html=1;align=center;verticalAlign=middle;resizable=0;points=[];" vertex="1" connectable="0" parent="UME8nkSPIRxr-dYa2A3D-12">
          <mxGeometry x="-0.1124" y="1" relative="1" as="geometry">
            <mxPoint as="offset" />
          </mxGeometry>
        </mxCell>
        <mxCell id="UME8nkSPIRxr-dYa2A3D-13" style="edgeStyle=entityRelationEdgeStyle;rounded=0;orthogonalLoop=1;jettySize=auto;html=1;entryX=0;entryY=0.5;entryDx=0;entryDy=0;entryPerimeter=0;" edge="1" parent="1" source="UME8nkSPIRxr-dYa2A3D-7" target="UME8nkSPIRxr-dYa2A3D-11">
          <mxGeometry relative="1" as="geometry" />
        </mxCell>
        <mxCell id="UME8nkSPIRxr-dYa2A3D-14" value="On ETL&lt;br&gt;Glue trigger" style="edgeLabel;html=1;align=center;verticalAlign=middle;resizable=0;points=[];" vertex="1" connectable="0" parent="UME8nkSPIRxr-dYa2A3D-13">
          <mxGeometry x="0.0227" relative="1" as="geometry">
            <mxPoint as="offset" />
          </mxGeometry>
        </mxCell>
        <mxCell id="UME8nkSPIRxr-dYa2A3D-16" value="Quicksight&lt;br&gt;OR&lt;br&gt;Dashboard" style="sketch=0;points=[[0,0,0],[0.25,0,0],[0.5,0,0],[0.75,0,0],[1,0,0],[0,1,0],[0.25,1,0],[0.5,1,0],[0.75,1,0],[1,1,0],[0,0.25,0],[0,0.5,0],[0,0.75,0],[1,0.25,0],[1,0.5,0],[1,0.75,0]];outlineConnect=0;fontColor=#232F3E;fillColor=#8C4FFF;strokeColor=#ffffff;dashed=0;verticalLabelPosition=bottom;verticalAlign=top;align=center;html=1;fontSize=12;fontStyle=0;aspect=fixed;shape=mxgraph.aws4.resourceIcon;resIcon=mxgraph.aws4.quicksight;" vertex="1" parent="1">
          <mxGeometry x="1330" y="110" width="78" height="78" as="geometry" />
        </mxCell>
        <mxCell id="UME8nkSPIRxr-dYa2A3D-17" value="Model&lt;div&gt;trainer&lt;/div&gt;" style="sketch=0;points=[[0,0,0],[0.25,0,0],[0.5,0,0],[0.75,0,0],[1,0,0],[0,1,0],[0.25,1,0],[0.5,1,0],[0.75,1,0],[1,1,0],[0,0.25,0],[0,0.5,0],[0,0.75,0],[1,0.25,0],[1,0.5,0],[1,0.75,0]];outlineConnect=0;fontColor=#232F3E;fillColor=#01A88D;strokeColor=#ffffff;dashed=0;verticalLabelPosition=bottom;verticalAlign=top;align=center;html=1;fontSize=12;fontStyle=0;aspect=fixed;shape=mxgraph.aws4.resourceIcon;resIcon=mxgraph.aws4.sagemaker;" vertex="1" parent="1">
          <mxGeometry x="690" y="389" width="78" height="78" as="geometry" />
        </mxCell>
        <mxCell id="UME8nkSPIRxr-dYa2A3D-18" style="edgeStyle=entityRelationEdgeStyle;rounded=0;orthogonalLoop=1;jettySize=auto;html=1;entryX=0;entryY=0.5;entryDx=0;entryDy=0;entryPerimeter=0;" edge="1" parent="1" source="UME8nkSPIRxr-dYa2A3D-7" target="UME8nkSPIRxr-dYa2A3D-17">
          <mxGeometry relative="1" as="geometry" />
        </mxCell>
        <mxCell id="UME8nkSPIRxr-dYa2A3D-19" style="edgeStyle=orthogonalEdgeStyle;rounded=0;orthogonalLoop=1;jettySize=auto;html=1;entryX=0;entryY=0.5;entryDx=0;entryDy=0;entryPerimeter=0;" edge="1" parent="1" source="UME8nkSPIRxr-dYa2A3D-9" target="UME8nkSPIRxr-dYa2A3D-16">
          <mxGeometry relative="1" as="geometry" />
        </mxCell>
        <mxCell id="UME8nkSPIRxr-dYa2A3D-23" value="cloudwatch" style="sketch=0;points=[[0,0,0],[0.25,0,0],[0.5,0,0],[0.75,0,0],[1,0,0],[0,1,0],[0.25,1,0],[0.5,1,0],[0.75,1,0],[1,1,0],[0,0.25,0],[0,0.5,0],[0,0.75,0],[1,0.25,0],[1,0.5,0],[1,0.75,0]];points=[[0,0,0],[0.25,0,0],[0.5,0,0],[0.75,0,0],[1,0,0],[0,1,0],[0.25,1,0],[0.5,1,0],[0.75,1,0],[1,1,0],[0,0.25,0],[0,0.5,0],[0,0.75,0],[1,0.25,0],[1,0.5,0],[1,0.75,0]];outlineConnect=0;fontColor=#232F3E;fillColor=#E7157B;strokeColor=#ffffff;dashed=0;verticalLabelPosition=bottom;verticalAlign=top;align=center;html=1;fontSize=12;fontStyle=0;aspect=fixed;shape=mxgraph.aws4.resourceIcon;resIcon=mxgraph.aws4.cloudwatch_2;" vertex="1" parent="1">
          <mxGeometry x="218" y="420" width="38" height="38" as="geometry" />
        </mxCell>
        <mxCell id="UME8nkSPIRxr-dYa2A3D-25" value="S3 Bucket&lt;br&gt;Tained model" style="sketch=0;points=[[0,0,0],[0.25,0,0],[0.5,0,0],[0.75,0,0],[1,0,0],[0,1,0],[0.25,1,0],[0.5,1,0],[0.75,1,0],[1,1,0],[0,0.25,0],[0,0.5,0],[0,0.75,0],[1,0.25,0],[1,0.5,0],[1,0.75,0]];outlineConnect=0;dashed=0;verticalLabelPosition=bottom;verticalAlign=top;align=center;html=1;fontSize=12;fontStyle=0;aspect=fixed;shape=mxgraph.aws4.resourceIcon;resIcon=mxgraph.aws4.s3;" vertex="1" parent="1">
          <mxGeometry x="780" y="510" width="78" height="78" as="geometry" />
        </mxCell>
        <mxCell id="UME8nkSPIRxr-dYa2A3D-26" style="edgeStyle=orthogonalEdgeStyle;rounded=0;orthogonalLoop=1;jettySize=auto;html=1;entryX=0.5;entryY=0;entryDx=0;entryDy=0;entryPerimeter=0;" edge="1" parent="1" source="UME8nkSPIRxr-dYa2A3D-17" target="UME8nkSPIRxr-dYa2A3D-25">
          <mxGeometry relative="1" as="geometry" />
        </mxCell>
        <mxCell id="UME8nkSPIRxr-dYa2A3D-27" value="cloudwatch" style="sketch=0;points=[[0,0,0],[0.25,0,0],[0.5,0,0],[0.75,0,0],[1,0,0],[0,1,0],[0.25,1,0],[0.5,1,0],[0.75,1,0],[1,1,0],[0,0.25,0],[0,0.5,0],[0,0.75,0],[1,0.25,0],[1,0.5,0],[1,0.75,0]];points=[[0,0,0],[0.25,0,0],[0.5,0,0],[0.75,0,0],[1,0,0],[0,1,0],[0.25,1,0],[0.5,1,0],[0.75,1,0],[1,1,0],[0,0.25,0],[0,0.5,0],[0,0.75,0],[1,0.25,0],[1,0.5,0],[1,0.75,0]];outlineConnect=0;fontColor=#232F3E;fillColor=#E7157B;strokeColor=#ffffff;dashed=0;verticalLabelPosition=bottom;verticalAlign=top;align=center;html=1;fontSize=12;fontStyle=0;aspect=fixed;shape=mxgraph.aws4.resourceIcon;resIcon=mxgraph.aws4.cloudwatch_2;" vertex="1" parent="1">
          <mxGeometry x="830" y="150" width="38" height="38" as="geometry" />
        </mxCell>
        <mxCell id="UME8nkSPIRxr-dYa2A3D-43" value="CSV&lt;br&gt;Flat file" style="html=1;verticalLabelPosition=bottom;align=center;labelBackgroundColor=#ffffff;verticalAlign=top;strokeWidth=2;strokeColor=#0080F0;shadow=0;dashed=0;shape=mxgraph.ios7.icons.document;" vertex="1" parent="1">
          <mxGeometry x="-49.5" y="410" width="21" height="30" as="geometry" />
        </mxCell>
        <mxCell id="UME8nkSPIRxr-dYa2A3D-44" value="Parquet file" style="editableCssRules=.*;html=1;shape=image;verticalLabelPosition=bottom;labelBackgroundColor=#ffffff;verticalAlign=top;aspect=fixed;imageAspect=0;image=data:image/svg+xml,PHN2ZyB4bWxucz0iaHR0cDovL3d3dy53My5vcmcvMjAwMC9zdmciIHhtbG5zOnY9Imh0dHBzOi8vdmVjdGEuaW8vbmFubyIgd2lkdGg9IjE0LjY0MDAwMDM0MzMyMjc1NCIgaGVpZ2h0PSIyMCIgdmlld0JveD0iMCAwIDE0LjY0MDAwMDM0MzMyMjc1NCAyMCI+JiN4YTsJPHN0eWxlIHR5cGU9InRleHQvY3NzIj4mI3hhOwkuc3Qwe2ZpbGw6I2FlY2JmYTt9JiN4YTsJLnN0MXtmaWxsOiM0Mjg1ZjQ7fSYjeGE7CTwvc3R5bGU+JiN4YTsJPHBhdGggY2xhc3M9InN0MCIgZD0iTTAgMGgxNC42M3YzLjk0aC01LjN2NS4zM0g1LjM1VjMuOTZIMHoiLz4mI3hhOwk8cGF0aCBjbGFzcz0ic3QxIiBkPSJNMy45NSAxMC42N2g1LjM0VjIwSDUuMzV2LTUuMzVIMFY1LjM3aDMuOTV6TTE0LjY0IDIwSDEwLjdWNS4zNmgzLjk0eiIvPiYjeGE7CTxwYXRoIGNsYXNzPSJzdDAiIGQ9Ik0wIDE2LjA2aDMuOTJWMjBIMHoiLz4mI3hhOzwvc3ZnPg==;" vertex="1" parent="1">
          <mxGeometry x="384" y="410" width="30" height="40" as="geometry" />
        </mxCell>
        <mxCell id="UME8nkSPIRxr-dYa2A3D-59" value="&lt;font style=&quot;font-size: 11px;&quot;&gt;DYM&lt;br&gt;TRANSACTION_TYPE&lt;/font&gt;" style="swimlane;childLayout=stackLayout;horizontal=1;startSize=50;horizontalStack=0;rounded=1;fontSize=14;fontStyle=0;strokeWidth=2;resizeParent=0;resizeLast=1;shadow=0;dashed=0;align=center;arcSize=4;whiteSpace=wrap;html=1;" vertex="1" parent="1">
          <mxGeometry x="1000" y="269" width="143" height="81" as="geometry" />
        </mxCell>
        <mxCell id="UME8nkSPIRxr-dYa2A3D-60" value="" style="align=left;spacingLeft=4;fontSize=12;verticalAlign=top;resizable=0;rotatable=0;part=1;html=1;" vertex="1" parent="UME8nkSPIRxr-dYa2A3D-59">
          <mxGeometry y="50" width="143" height="31" as="geometry" />
        </mxCell>
        <mxCell id="UME8nkSPIRxr-dYa2A3D-65" style="edgeStyle=orthogonalEdgeStyle;rounded=0;orthogonalLoop=1;jettySize=auto;html=1;" edge="1" parent="1" source="UME8nkSPIRxr-dYa2A3D-61" target="UME8nkSPIRxr-dYa2A3D-60">
          <mxGeometry relative="1" as="geometry" />
        </mxCell>
        <mxCell id="UME8nkSPIRxr-dYa2A3D-61" value="&lt;font style=&quot;font-size: 11px;&quot;&gt;Fact&lt;br&gt;TRANSACTIONS&lt;/font&gt;" style="swimlane;childLayout=stackLayout;horizontal=1;startSize=50;horizontalStack=0;rounded=1;fontSize=14;fontStyle=0;strokeWidth=2;resizeParent=0;resizeLast=1;shadow=0;dashed=0;align=center;arcSize=4;whiteSpace=wrap;html=1;" vertex="1" parent="1">
          <mxGeometry x="1000" y="398.5" width="143" height="81" as="geometry" />
        </mxCell>
        <mxCell id="UME8nkSPIRxr-dYa2A3D-62" value="" style="align=left;spacingLeft=4;fontSize=12;verticalAlign=top;resizable=0;rotatable=0;part=1;html=1;" vertex="1" parent="UME8nkSPIRxr-dYa2A3D-61">
          <mxGeometry y="50" width="143" height="31" as="geometry" />
        </mxCell>
        <mxCell id="UME8nkSPIRxr-dYa2A3D-63" value="&lt;font style=&quot;font-size: 11px;&quot;&gt;DYM&lt;br&gt;ACCOUNT&lt;/font&gt;" style="swimlane;childLayout=stackLayout;horizontal=1;startSize=42;horizontalStack=0;rounded=1;fontSize=14;fontStyle=0;strokeWidth=2;resizeParent=0;resizeLast=1;shadow=0;dashed=0;align=center;arcSize=4;whiteSpace=wrap;html=1;" vertex="1" parent="1">
          <mxGeometry x="1000" y="520" width="143" height="81" as="geometry" />
        </mxCell>
        <mxCell id="UME8nkSPIRxr-dYa2A3D-64" value="" style="align=left;spacingLeft=4;fontSize=12;verticalAlign=top;resizable=0;rotatable=0;part=1;html=1;" vertex="1" parent="UME8nkSPIRxr-dYa2A3D-63">
          <mxGeometry y="42" width="143" height="39" as="geometry" />
        </mxCell>
        <mxCell id="UME8nkSPIRxr-dYa2A3D-66" style="edgeStyle=orthogonalEdgeStyle;rounded=0;orthogonalLoop=1;jettySize=auto;html=1;entryX=0.5;entryY=0;entryDx=0;entryDy=0;" edge="1" parent="1" source="UME8nkSPIRxr-dYa2A3D-62" target="UME8nkSPIRxr-dYa2A3D-63">
          <mxGeometry relative="1" as="geometry" />
        </mxCell>
      </root>
    </mxGraphModel>
  </diagram>
</mxfile>
